<?xml version="1.0" encoding="UTF-8" standalone="no"?>
<svg width="37px" height="50px" viewBox="0 0 37 50" version="1.1" xmlns="http://www.w3.org/2000/svg" xmlns:xlink="http://www.w3.org/1999/xlink">
    <!-- Generator: Sketch 48.2 (47327) - http://www.bohemiancoding.com/sketch -->
    <title>Artboard Copy 3</title>
    <desc>Created with Sketch.</desc>
    <defs>
        <polygon id="path-1" points="0 48.9826036 35.2824273 48.9826036 35.2824273 0.181502959 0 0.181502959"></polygon>
    </defs>
    <g id="Page-1" stroke="none" stroke-width="1" fill="none" fill-rule="evenodd">
        <g id="Artboard-Copy-3">
            <g id="Penguin_Logo_RGB-Copy-12" transform="translate(0.500000, 0.500000)">
                <g id="Group-3">
                    <mask id="mask-2" fill="white">
                        <use xlink:href="#path-1"></use>
                    </mask>
                    <g id="Clip-2"></g>
                    <path d="M17.5985995,0.181502959 C0.706893056,0.216005917 -0.00678287037,20.9258994 -3.80436425e-13,24.7284734 C0.0215282407,36.2689882 4.80256713,49.0252249 17.6888412,49 C30.5718713,48.9762249 35.302481,36.122858 35.2824273,24.5829231 C35.2744648,20.7791893 34.4864722,0.148739645 17.5985995,0.181502959" id="Fill-1" fill="#0A0B09" mask="url(#mask-2)"></path>
                </g>
                <path d="M17.6888412,48.3050118 C5.44959398,48.3299467 2.14545139,35.5316686 2.12421806,24.5698757 C2.11773009,20.9569231 1.49842454,0.784579882 17.542862,0.753556213 C33.5867097,0.72108284 33.1449384,20.9995444 33.1570296,24.612787 C33.1767884,35.5792189 29.9310375,48.2858757 17.6888412,48.3050118" id="Fill-4" fill="#1B1A19"></path>
                <path d="M2.12421806,24.5698757 C2.11773009,20.9569231 1.49842454,0.784579882 17.542862,0.753556213 C33.5867097,0.72108284 33.1449384,20.9995444 33.1570296,24.612787 C33.1767884,35.5792189 29.9310375,48.2858757 17.6888412,48.3050118 C5.44959398,48.3299467 2.14545139,35.5316686 2.12421806,24.5698757 Z" id="Fill-5" fill="#FF6600"></path>
                <path d="M25.7607519,19.051432 C24.323963,16.797142 22.3056167,14.1360651 22.0797176,11.4001834 C21.9393417,9.68112426 22.0419694,7.76026627 20.8661736,6.34390533 C20.5229014,5.92871006 20.0419074,5.54946746 19.562388,5.3047574 C19.0471847,5.04207101 18.3892463,4.87448521 17.8065093,4.87448521 C17.2606356,4.87448521 16.7121079,4.95827811 16.1904167,5.11339645 C15.571406,5.29692899 14.9579986,5.51380473 14.3151005,5.60252663 C13.5704593,5.7045858 12.9712074,5.66776331 12.2457352,5.50916568 C11.8134009,5.41406509 11.6942583,5.38072189 11.2616292,5.28881065 C11.0230491,5.23807101 10.3754324,5.05279882 10.1687023,5.25140828 C9.68063056,5.733 10.7160505,6.31433136 11.0268829,6.5312071 C11.704875,7.0148284 11.9853319,7.17632544 12.6320639,7.72286391 C13.5041051,8.46859172 14.1977273,9.35610059 14.4649134,10.466574 C14.5404097,10.7863787 14.5660667,11.1119822 14.5687208,11.4445444 C14.6336005,16.238716 6.49445093,20.9461953 6.60533611,29.4385621 C6.64308426,32.4426391 8.27421713,32.9358284 8.25416343,31.2709882 C8.22585231,29.2930118 8.94011806,27.1564379 9.68063056,25.3225621 C9.85226667,24.8992485 10.3999097,24.7713846 10.2772282,25.5060947 C10.0861282,26.6687574 9.60041574,28.6812367 9.64583148,31.9619172 C9.65290926,32.7534556 9.70422315,33.5519527 9.81746759,34.339142 C9.91213287,34.9671538 10.0528037,35.5928462 10.2380056,36.2066509 C10.3946014,36.7210059 10.5983824,37.2165148 10.851413,37.6894083 C11.0566685,38.063142 11.2931843,38.4203491 11.5715769,38.744213 C11.8431866,39.0631479 12.1360296,39.2977101 12.4648514,39.5508284 C12.6556565,39.7007278 12.8715287,39.8300414 12.9635398,40.0689527 C13.0959532,40.4119527 12.6456296,40.5514142 12.4105884,40.6578225 C12.1510699,40.7723491 11.924581,40.9007929 11.679513,41.0185089 C11.3279833,41.1860947 10.9785181,41.3667278 10.6361306,41.5514201 C10.4267463,41.669716 10.1881662,41.7390118 9.984975,41.8776036 C9.78473287,42.0051775 9.68210509,42.2203136 9.9970662,42.2661243 C10.1389167,42.2927988 10.2919736,42.2530769 10.440312,42.2452485 C10.6859699,42.2377101 10.949912,42.203787 11.1849532,42.2927988 C11.5040431,42.4166036 11.4878231,42.7169822 11.4999144,43.0089527 C11.5134801,43.3267278 11.7349556,43.4293669 12.0230801,43.3522426 C12.351312,43.2606213 12.5822245,43.0101124 12.8379093,42.8007751 C13.0254704,42.6465266 13.2313157,42.4870592 13.447188,42.3783314 C13.8874847,42.1626154 14.4118301,42.2351006 14.8851565,42.2571361 C15.1458546,42.2707633 15.5162583,42.3803609 15.7294764,42.1710237 C15.9459384,41.9547278 15.7893426,41.5888225 15.6932028,41.3531006 C15.6041407,41.1266568 15.4929606,40.9097811 15.3794213,40.694645 C15.3269278,40.5960651 15.2543806,40.508213 15.2092597,40.4064438 C15.0270069,39.9880592 16.5068523,39.6731834 16.7197755,39.6120059 C17.4405292,39.4232544 18.1934278,39.2545089 18.9336454,39.1973905 C19.6393588,39.136213 20.4161449,39.1321538 21.0799815,39.4029586 C21.3663366,39.5200947 21.5987236,39.719574 21.7874644,39.9555858 C21.8956954,40.0846095 22.1416481,40.4754497 21.9228269,40.6346272 C21.5810292,40.880497 21.2253708,41.0933136 20.8959593,41.3531006 C20.6853954,41.512858 20.4836787,41.6804438 20.3040801,41.8810828 C20.1701921,42.027213 20.1336236,42.2898994 20.4052333,42.2733728 C20.7650204,42.2571361 21.1256921,42.2377101 21.4825301,42.2359704 C21.7390995,42.2351006 22.0163125,42.2707633 22.2336593,42.4139941 C22.584894,42.6500059 22.6618648,43.1539231 23.0594,43.3464438 C23.1694005,43.4009527 23.3050579,43.4009527 23.4242005,43.3652899 C23.6848986,43.2855562 23.8055157,43.0199704 23.9458917,42.8126627 C24.0756509,42.6279704 24.2051153,42.4421183 24.4118454,42.3302012 C24.5395403,42.2614852 24.6861093,42.2351006 24.8320884,42.2351006 C25.094556,42.2351006 25.3579083,42.2394497 25.6203759,42.2661243 C25.8282856,42.2927988 26.110512,42.3873195 26.2942394,42.2495976 C26.6407556,41.9845917 25.7271324,41.3945621 25.5434051,41.2806154 C25.1272907,41.0254675 24.5324625,40.7558225 24.4012287,40.2287101 C24.2514157,39.6102663 24.5578245,38.9657278 24.8244208,38.4215089 C25.1016338,37.8439467 25.4797051,37.3150947 25.6943977,36.7073787 C25.897294,36.1512722 26.0485815,35.5719704 26.1346944,34.9836805 C26.5909162,31.7722959 25.8312347,28.3547633 24.8783889,25.2886391 C24.7645546,24.9218639 24.6212296,24.5562485 24.5079852,24.1894734 C24.3434269,23.6101716 24.9146625,23.4730296 25.2078005,24.0355148 C25.486488,24.5788639 27.314619,28.0346686 27.8498759,30.6026746 C28.1860704,32.2422899 29.4403116,32.3072367 29.404038,29.4017396 C29.3553782,25.1894793 27.74135,22.1474201 25.7607519,19.051432" id="Fill-6" fill="#0A0B09"></path>
                <path d="M24.2514157,31.7279349 C24.4728912,33.8471124 24.7117662,37.5029763 22.0797176,37.627071 C21.3822616,37.6598343 20.5152338,37.1802722 19.2232444,37.2658047 C17.0311977,37.4142544 16.3785676,38.239716 14.5881847,37.9236805 C13.5619069,37.744787 12.8051745,37.1750533 12.3740199,36.1988225 C11.8853583,35.0877692 11.8431866,33.829426 11.7650361,32.6363195 C11.6821671,31.3043314 11.6821671,29.9610355 11.762087,28.6275976 C11.8225431,27.6644142 11.924581,26.7026805 12.0540454,25.7441361 C12.268738,24.1538107 12.6123051,22.5846509 12.9812343,21.0233195 C13.303863,19.6484201 13.6433014,18.2688817 14.2475667,16.9766154 C14.6908125,16.0343077 15.3481611,15.1259231 16.3243046,14.6452012 C17.3877407,14.1224379 18.8767282,14.0838757 19.9230597,14.6101183 C22.2920509,15.8043846 22.2336593,18.5843373 22.3088606,20.8426864 C22.3690218,22.5829112 22.5878431,24.3701065 22.9092921,26.0816272 C23.2596421,27.9830592 24.0470449,29.7934497 24.2514157,31.7279349" id="Fill-7" fill="#FFFFFE"></path>
                <path d="M20.4199787,8.4216213 C20.9053963,8.98004734 20.8753157,11.2859467 20.0796556,12.0844438 C19.6166509,12.5526982 18.829838,12.6132959 18.2105324,12.6999882 C17.5245778,12.7956686 16.8536634,12.9441183 16.1768509,13.1099645 C15.5321833,13.264503 15.5770093,12.5947396 16.1969046,12.1154675 C17.1237986,11.4013432 19.4497333,11.0844379 20.0106472,8.4216213 C20.0298162,8.32072189 20.1430606,8.10268639 20.4199787,8.4216213" id="Fill-8" fill="#FFFFFE"></path>
                <path d="M17.0485972,9.02585799 C17.6962139,9.44105325 18.6231079,9.17256805 19.1161931,8.42568047 C19.6092782,7.67850296 19.4836477,6.73793491 18.8324921,6.3224497 C18.1834009,5.90957396 17.2550324,6.17747929 16.7604727,6.9232071 C16.268862,7.66574556 16.3971468,8.60892308 17.0485972,9.02585799" id="Fill-9" fill="#FFFFFE"></path>
                <path d="M17.6605301,7.57383432 C17.8997,7.22329586 18.3293801,7.09485207 18.6160301,7.28563314 C18.8973718,7.47699408 18.9309912,7.91422485 18.6879875,8.26592308 C18.4458685,8.61530178 18.0191375,8.74432544 17.7354366,8.55470414 C17.4487866,8.36218343 17.4175264,7.92321302 17.6605301,7.57383432" id="Fill-10" fill="#0A0B09"></path>
            </g>
        </g>
    </g>
</svg>